<?xml version="1.0" ?><svg contentScriptType="text/ecmascript" contentStyleType="text/css" enable-background="new 0 0 2048 2048" height="2048px" id="Layer_1" preserveAspectRatio="xMidYMid meet" version="1.1" viewBox="0.0 0 1024.0 2048" width="1024.0px" xml:space="preserve" xmlns="http://www.w3.org/2000/svg" xmlns:xlink="http://www.w3.org/1999/xlink" zoomAndPan="magnify"><path fill="#969696" d="M736,704c0,8.667-3.167,16.167-9.5,22.5S712.667,736,704,736s-16.167-3.167-22.5-9.5S672,712.667,672,704  c0-30.667-18-54.333-54-71c-36-16.667-71.333-25-106-25c-8.667,0-16.167-3.167-22.5-9.5S480,584.667,480,576s3.167-16.167,9.5-22.5  s13.833-9.5,22.5-9.5c33.333,0,66.5,5.333,99.5,16s62,28.667,87,54S736,669.333,736,704z M896,704c0-48-11.5-92.667-34.5-134  s-53-75.167-90-101.5s-78-47-123-62S558,384,512,384s-91.5,7.5-136.5,22.5s-86,35.667-123,62s-67,60.167-90,101.5S128,656,128,704  c0,67.333,22.667,127.333,68,180c6.667,7.333,16.833,18.333,30.5,33s23.833,25.667,30.5,33c85.333,102,132.333,201.333,141,298h228  c8.667-96.667,55.667-196,141-298c6.667-7.333,16.833-18.333,30.5-33s23.833-25.667,30.5-33C873.333,831.333,896,771.333,896,704z   M1024,704c0,103.333-34.333,192.667-103,268c-30,32.667-54.833,61.667-74.5,87s-39.5,57.167-59.5,95.5  c-20,38.333-31.333,74.167-34,107.5c31.333,18.667,47,46,47,82c0,24.667-8.333,46-25,64c16.667,18,25,39.333,25,64  c0,34.667-15,61.667-45,81c8.667,15.333,13,31,13,47c0,30.667-10.5,54.333-31.5,71s-46.833,25-77.5,25  c-13.333,29.333-33.333,52.667-60,70s-55.667,26-87,26s-60.333-8.667-87-26s-46.667-40.667-60-70c-30.667,0-56.5-8.333-77.5-25  s-31.5-40.333-31.5-71c0-16,4.333-31.667,13-47c-30-19.333-45-46.333-45-81c0-24.667,8.333-46,25-64c-16.667-18-25-39.333-25-64  c0-36,15.667-63.333,47-82c-2.667-33.333-14-69.167-34-107.5c-20-38.333-39.833-70.167-59.5-95.5s-44.5-54.333-74.5-87  C34.333,896.667,0,807.333,0,704c0-66,14.833-127.5,44.5-184.5s68.667-104.333,117-142s103-67.333,164-89S448.667,256,512,256  s125.5,10.833,186.5,32.5s115.667,51.333,164,89s87.333,85,117,142S1024,638,1024,704z"/></svg>