<?xml version="1.0" ?><svg contentScriptType="text/ecmascript" contentStyleType="text/css" enable-background="new 0 0 2048 2048" height="2048px" id="Layer_1" preserveAspectRatio="xMidYMid meet" version="1.1" viewBox="0.0 0 1568.0 2048" width="1568.0px" xml:space="preserve" xmlns="http://www.w3.org/2000/svg" xmlns:xlink="http://www.w3.org/1999/xlink" zoomAndPan="magnify"><path fill="#969696" d="M640,1568c0,2.667,0.333,9.333,1,20s0.833,19.5,0.5,26.5s-1.333,14.833-3,23.5s-5,15.167-10,19.5s-11.833,6.5-20.5,6.5H288  c-79.333,0-147.167-28.167-203.5-84.5S0,1455.333,0,1376V672c0-79.333,28.167-147.167,84.5-203.5S208.667,384,288,384h320  c8.667,0,16.167,3.167,22.5,9.5s9.5,13.833,9.5,22.5c0,2.667,0.333,9.333,1,20s0.833,19.5,0.5,26.5s-1.333,14.833-3,23.5  s-5,15.167-10,19.5S616.667,512,608,512H288c-44,0-81.667,15.667-113,47s-47,69-47,113v704c0,44,15.667,81.667,47,113s69,47,113,47  h288h11h13c0,0,3.833,0.333,11.5,1s11.5,1.667,11.5,3s2.667,3.167,8,5.5s7.667,5.333,7,9S638,1562.667,640,1568z M1568,1024  c0,17.333-6.333,32.333-19,45l-544,544c-12.667,12.667-27.667,19-45,19s-32.333-6.333-45-19s-19-27.667-19-45v-288H448  c-17.333,0-32.333-6.333-45-19s-19-27.667-19-45V832c0-17.333,6.333-32.333,19-45s27.667-19,45-19h448V480  c0-17.333,6.333-32.333,19-45s27.667-19,45-19s32.333,6.333,45,19l544,544C1561.667,991.667,1568,1006.667,1568,1024z"/></svg>