<?xml version="1.0" ?><svg contentScriptType="text/ecmascript" contentStyleType="text/css" enable-background="new 0 0 2048 2048" height="2048px" id="Layer_1" preserveAspectRatio="xMidYMid meet" version="1.1" viewBox="0.0 0 1409.3330078125 2048" width="1409.3330078125px" xml:space="preserve" xmlns="http://www.w3.org/2000/svg" xmlns:xlink="http://www.w3.org/1999/xlink" zoomAndPan="magnify"><path fill="#969696" d="M384,1472c0,53.333-18.667,98.667-56,136s-82.667,56-136,56s-98.667-18.667-136-56s-56-82.667-56-136s18.667-98.667,56-136  s82.667-56,136-56s98.667,18.667,136,56S384,1418.667,384,1472z M896,1595c1.333,18.667-4.333,34.667-17,48c-12,14-27.667,21-47,21  H697c-16.667,0-31-5.5-43-16.5s-18.667-24.833-20-41.5c-14.667-152.667-76.167-283.167-184.5-391.5  C341.167,1106.167,210.667,1044.667,58,1030c-16.667-1.333-30.5-8-41.5-20S0,983.667,0,967V832c0-19.333,7-35,21-47  c11.333-11.333,25.667-17,43-17h5c106.667,8.667,208.667,35.5,306,80.5S558.667,954,634,1030c76,75.333,136.5,161.667,181.5,259  S887.333,1488.333,896,1595z M1408,1597c1.333,18-4.667,33.667-18,47c-12,13.333-27.333,20-46,20h-143  c-17.333,0-32.167-5.833-44.5-17.5s-18.833-25.833-19.5-42.5c-8-143.333-41.667-279.5-101-408.5c-59.333-129-136.5-241-231.5-336  s-207-172.167-336-231.5c-129-59.333-265.167-93.333-408.5-102c-16.667-0.667-30.833-7.167-42.5-19.5S0,479.667,0,463V320  c0-18.667,6.667-34,20-46c12-12,26.667-18,44-18h3c174.667,8.667,341.833,48.667,501.5,120S870,545.333,994,670  c124.667,124,222.667,265.833,294,425.5S1399.333,1422.333,1408,1597z"/></svg>