<?xml version="1.0" ?><svg contentScriptType="text/ecmascript" contentStyleType="text/css" enable-background="new 0 0 2048 2048" height="2048px" id="Layer_1" preserveAspectRatio="xMidYMid meet" version="1.1" viewBox="0.0 0 1536.0 2048" width="1536.0px" xml:space="preserve" xmlns="http://www.w3.org/2000/svg" xmlns:xlink="http://www.w3.org/1999/xlink" zoomAndPan="magnify"><path fill="#969696" d="M1024,1024c0-70.667-25-131-75-181s-110.333-75-181-75s-131,25-181,75s-75,110.333-75,181s25,131,75,181s110.333,75,181,75  s131-25,181-75S1024,1094.667,1024,1024z M1536,915v222c0,8-2.667,15.667-8,23s-12,11.667-20,13l-185,28  c-12.667,36-25.667,66.333-39,91c23.333,33.333,59,79.333,107,138c6.667,8,10,16.333,10,25s-3,16.333-9,23  c-18,24.667-51,60.667-99,108s-79.333,71-94,71c-8,0-16.667-3-26-9l-138-108c-29.333,15.333-59.667,28-91,38  c-10.667,90.667-20.333,152.667-29,186c-4.667,18.667-16.667,28-36,28H657c-9.333,0-17.5-2.833-24.5-8.5s-10.833-12.833-11.5-21.5  l-28-184c-32.667-10.667-62.667-23-90-37l-141,107c-6.667,6-15,9-25,9c-9.333,0-17.667-3.667-25-11c-84-76-139-132-165-168  c-4.667-6.667-7-14.333-7-23c0-8,2.667-15.667,8-23c10-14,27-36.167,51-66.5s42-53.833,54-70.5c-18-33.333-31.667-66.333-41-99  l-183-27c-8.667-1.333-15.667-5.5-21-12.5s-8-14.833-8-23.5V911c0-8,2.667-15.667,8-23s11.667-11.667,19-13l186-28  c9.333-30.667,22.333-61.333,39-92c-26.667-38-62.333-84-107-138c-6.667-8-10-16-10-24c0-6.667,3-14.333,9-23  c17.333-24,50.167-59.833,98.5-107.5S322.333,391,337,391c8.667,0,17.333,3.333,26,10l138,107c29.333-15.333,59.667-28,91-38  c10.667-90.667,20.333-152.667,29-186c4.667-18.667,16.667-28,36-28h222c9.333,0,17.5,2.833,24.5,8.5s10.833,12.833,11.5,21.5  l28,184c32.667,10.667,62.667,23,90,37l142-107c6-6,14-9,24-9c8.667,0,17,3.333,25,10c86,79.333,141,136,165,170  c4.667,5.333,7,12.667,7,22c0,8-2.667,15.667-8,23c-10,14-27,36.167-51,66.5s-42,53.833-54,70.5c17.333,33.333,31,66,41,98l183,28  c8.667,1.333,15.667,5.5,21,12.5S1536,906.333,1536,915z"/></svg>